<mxfile host="app.diagrams.net" modified="2024-06-05T22:28:50.681Z" agent="Mozilla/5.0 (Windows NT 10.0; Win64; x64) AppleWebKit/537.36 (KHTML, like Gecko) Chrome/125.0.0.0 Safari/537.36" etag="07P_AmYCbSdz1LXiIxlN" version="24.4.14" type="device">
  <diagram name="PÃ¡gina-1" id="oKhukBg--tAQRN1ix6OZ">
    <mxGraphModel dx="1697" dy="2066" grid="1" gridSize="10" guides="1" tooltips="1" connect="1" arrows="1" fold="1" page="1" pageScale="1" pageWidth="827" pageHeight="1169" math="0" shadow="0">
      <root>
        <mxCell id="0" />
        <mxCell id="1" parent="0" />
        <mxCell id="a5W6hC7SfEO5U4nKYkXS-47" value="" style="endArrow=none;html=1;rounded=0;entryX=0;entryY=0.5;entryDx=0;entryDy=0;exitX=0.011;exitY=0.902;exitDx=0;exitDy=0;exitPerimeter=0;" parent="1" target="a5W6hC7SfEO5U4nKYkXS-49" edge="1">
          <mxGeometry width="50" height="50" relative="1" as="geometry">
            <mxPoint x="1014.3400000000001" y="373.8399999999999" as="sourcePoint" />
            <mxPoint x="1251" y="373" as="targetPoint" />
            <Array as="points">
              <mxPoint x="1140" y="374" />
            </Array>
          </mxGeometry>
        </mxCell>
        <mxCell id="2-oC6OEvbJuWoWcRU2Rp-2" value="Athlete" style="rounded=0;whiteSpace=wrap;html=1;" parent="1" vertex="1">
          <mxGeometry x="472.5" y="-157.25" width="120" height="60" as="geometry" />
        </mxCell>
        <mxCell id="2-oC6OEvbJuWoWcRU2Rp-6" value="Chat" style="rounded=0;whiteSpace=wrap;html=1;" parent="1" vertex="1">
          <mxGeometry x="58.13" y="-91.5" width="120" height="60" as="geometry" />
        </mxCell>
        <mxCell id="2-oC6OEvbJuWoWcRU2Rp-8" value="name" style="ellipse;whiteSpace=wrap;html=1;" parent="1" vertex="1">
          <mxGeometry x="550" y="-280" width="90" height="40" as="geometry" />
        </mxCell>
        <mxCell id="2-oC6OEvbJuWoWcRU2Rp-9" value="&lt;u&gt;num_Athlete&lt;/u&gt;" style="ellipse;whiteSpace=wrap;html=1;" parent="1" vertex="1">
          <mxGeometry x="561.5" y="-230" width="90" height="40" as="geometry" />
        </mxCell>
        <mxCell id="2-oC6OEvbJuWoWcRU2Rp-19" value="name" style="ellipse;whiteSpace=wrap;html=1;" parent="1" vertex="1">
          <mxGeometry x="395" y="285.5" width="90" height="40" as="geometry" />
        </mxCell>
        <mxCell id="2-oC6OEvbJuWoWcRU2Rp-21" value="slots" style="ellipse;whiteSpace=wrap;html=1;" parent="1" vertex="1">
          <mxGeometry x="561.5" y="237" width="90" height="40" as="geometry" />
        </mxCell>
        <mxCell id="2-oC6OEvbJuWoWcRU2Rp-23" value="price" style="ellipse;whiteSpace=wrap;html=1;" parent="1" vertex="1">
          <mxGeometry x="368.13" y="192.5" width="90" height="40" as="geometry" />
        </mxCell>
        <mxCell id="2-oC6OEvbJuWoWcRU2Rp-25" value="tags" style="ellipse;whiteSpace=wrap;html=1;" parent="1" vertex="1">
          <mxGeometry x="590" y="192.5" width="90" height="40" as="geometry" />
        </mxCell>
        <mxCell id="2-oC6OEvbJuWoWcRU2Rp-26" value="photo" style="ellipse;whiteSpace=wrap;html=1;" parent="1" vertex="1">
          <mxGeometry x="360" y="235.5" width="90" height="40" as="geometry" />
        </mxCell>
        <mxCell id="2-oC6OEvbJuWoWcRU2Rp-34" value="path" style="ellipse;whiteSpace=wrap;html=1;" parent="1" vertex="1">
          <mxGeometry x="692" y="234.5" width="90" height="40" as="geometry" />
        </mxCell>
        <mxCell id="2-oC6OEvbJuWoWcRU2Rp-35" value="name" style="ellipse;whiteSpace=wrap;html=1;" parent="1" vertex="1">
          <mxGeometry x="782" y="222.5" width="90" height="40" as="geometry" />
        </mxCell>
        <mxCell id="2-oC6OEvbJuWoWcRU2Rp-36" value="muscletargets" style="ellipse;whiteSpace=wrap;html=1;" parent="1" vertex="1">
          <mxGeometry x="1062.5" y="177.5" width="90" height="40" as="geometry" />
        </mxCell>
        <mxCell id="2-oC6OEvbJuWoWcRU2Rp-37" value="releasedate" style="ellipse;whiteSpace=wrap;html=1;" parent="1" vertex="1">
          <mxGeometry x="952" y="289.5" width="90" height="40" as="geometry" />
        </mxCell>
        <mxCell id="2-oC6OEvbJuWoWcRU2Rp-38" value="&lt;u&gt;num_Ex&lt;/u&gt;" style="ellipse;whiteSpace=wrap;html=1;" parent="1" vertex="1">
          <mxGeometry x="697" y="194.5" width="90" height="40" as="geometry" />
        </mxCell>
        <mxCell id="2-oC6OEvbJuWoWcRU2Rp-39" value="description" style="ellipse;whiteSpace=wrap;html=1;" parent="1" vertex="1">
          <mxGeometry x="798" y="263.5" width="90" height="40" as="geometry" />
        </mxCell>
        <mxCell id="2-oC6OEvbJuWoWcRU2Rp-40" value="is_time" style="ellipse;whiteSpace=wrap;html=1;" parent="1" vertex="1">
          <mxGeometry x="960" y="248.5" width="90" height="40" as="geometry" />
        </mxCell>
        <mxCell id="2-oC6OEvbJuWoWcRU2Rp-41" value="thumbnail" style="ellipse;whiteSpace=wrap;html=1;" parent="1" vertex="1">
          <mxGeometry x="972.5" y="208.5" width="90" height="40" as="geometry" />
        </mxCell>
        <mxCell id="2-oC6OEvbJuWoWcRU2Rp-42" value="PT_num" style="ellipse;whiteSpace=wrap;html=1;" parent="1" vertex="1">
          <mxGeometry x="1062.5" y="222.5" width="90" height="40" as="geometry" />
        </mxCell>
        <mxCell id="2-oC6OEvbJuWoWcRU2Rp-52" value="&lt;u&gt;num_chat&lt;/u&gt;" style="ellipse;whiteSpace=wrap;html=1;" parent="1" vertex="1">
          <mxGeometry x="-49.87" y="-111.5" width="90" height="40" as="geometry" />
        </mxCell>
        <mxCell id="2-oC6OEvbJuWoWcRU2Rp-53" value="PT_num" style="ellipse;whiteSpace=wrap;html=1;" parent="1" vertex="1">
          <mxGeometry x="-49.87" y="-54" width="90" height="40" as="geometry" />
        </mxCell>
        <mxCell id="2-oC6OEvbJuWoWcRU2Rp-54" value="Athlete_num" style="ellipse;whiteSpace=wrap;html=1;" parent="1" vertex="1">
          <mxGeometry x="33.13" y="-151.5" width="90" height="40" as="geometry" />
        </mxCell>
        <mxCell id="2-oC6OEvbJuWoWcRU2Rp-55" value="&lt;u&gt;num_msg&lt;/u&gt;" style="ellipse;whiteSpace=wrap;html=1;" parent="1" vertex="1">
          <mxGeometry x="266.13" y="222.5" width="90" height="40" as="geometry" />
        </mxCell>
        <mxCell id="2-oC6OEvbJuWoWcRU2Rp-56" value="sent_by_user" style="ellipse;whiteSpace=wrap;html=1;" parent="1" vertex="1">
          <mxGeometry x="191.13" y="252.5" width="90" height="40" as="geometry" />
        </mxCell>
        <mxCell id="2-oC6OEvbJuWoWcRU2Rp-57" value="chat_num" style="ellipse;whiteSpace=wrap;html=1;" parent="1" vertex="1">
          <mxGeometry x="96.13" y="222.5" width="90" height="40" as="geometry" />
        </mxCell>
        <mxCell id="2-oC6OEvbJuWoWcRU2Rp-58" value="text" style="ellipse;whiteSpace=wrap;html=1;" parent="1" vertex="1">
          <mxGeometry x="63.13" y="162.5" width="90" height="40" as="geometry" />
        </mxCell>
        <mxCell id="2-oC6OEvbJuWoWcRU2Rp-61" value="Publish" style="rhombus;whiteSpace=wrap;html=1;" parent="1" vertex="1">
          <mxGeometry x="660" y="97.5" width="80" height="80" as="geometry" />
        </mxCell>
        <mxCell id="2-oC6OEvbJuWoWcRU2Rp-62" value="" style="endArrow=none;html=1;rounded=0;entryX=0.847;entryY=0.349;entryDx=0;entryDy=0;exitX=0;exitY=0.25;exitDx=0;exitDy=0;entryPerimeter=0;" parent="1" source="2-oC6OEvbJuWoWcRU2Rp-5" edge="1">
          <mxGeometry width="50" height="50" relative="1" as="geometry">
            <mxPoint x="837.0000000000005" y="119.50000000000011" as="sourcePoint" />
            <mxPoint x="724.7600000000002" y="122.42000000000007" as="targetPoint" />
          </mxGeometry>
        </mxCell>
        <mxCell id="2-oC6OEvbJuWoWcRU2Rp-65" value="" style="endArrow=none;html=1;rounded=0;exitX=1;exitY=0.5;exitDx=0;exitDy=0;entryX=0;entryY=0.5;entryDx=0;entryDy=0;" parent="1" source="2-oC6OEvbJuWoWcRU2Rp-1" target="2-oC6OEvbJuWoWcRU2Rp-61" edge="1">
          <mxGeometry width="50" height="50" relative="1" as="geometry">
            <mxPoint x="340" y="185" as="sourcePoint" />
            <mxPoint x="520" y="140" as="targetPoint" />
          </mxGeometry>
        </mxCell>
        <mxCell id="2-oC6OEvbJuWoWcRU2Rp-66" value="N" style="text;html=1;align=center;verticalAlign=middle;whiteSpace=wrap;rounded=0;" parent="1" vertex="1">
          <mxGeometry x="790" y="90" width="60" height="30" as="geometry" />
        </mxCell>
        <mxCell id="2-oC6OEvbJuWoWcRU2Rp-67" value="1" style="text;html=1;align=center;verticalAlign=middle;whiteSpace=wrap;rounded=0;" parent="1" vertex="1">
          <mxGeometry x="575" y="107.5" width="60" height="30" as="geometry" />
        </mxCell>
        <mxCell id="2-oC6OEvbJuWoWcRU2Rp-69" value="Subscribes to" style="rhombus;whiteSpace=wrap;html=1;" parent="1" vertex="1">
          <mxGeometry x="485" y="-22.5" width="90" height="80" as="geometry" />
        </mxCell>
        <mxCell id="2-oC6OEvbJuWoWcRU2Rp-72" value="" style="endArrow=none;html=1;rounded=0;entryX=0.25;entryY=0;entryDx=0;entryDy=0;exitX=0.5;exitY=0;exitDx=0;exitDy=0;" parent="1" source="2-oC6OEvbJuWoWcRU2Rp-69" target="2-oC6OEvbJuWoWcRU2Rp-74" edge="1">
          <mxGeometry width="50" height="50" relative="1" as="geometry">
            <mxPoint x="647.5" y="-127.50000000000023" as="sourcePoint" />
            <mxPoint x="692.5" y="-220" as="targetPoint" />
          </mxGeometry>
        </mxCell>
        <mxCell id="2-oC6OEvbJuWoWcRU2Rp-73" value="M" style="text;html=1;align=center;verticalAlign=middle;whiteSpace=wrap;rounded=0;" parent="1" vertex="1">
          <mxGeometry x="515" y="82.5" width="60" height="30" as="geometry" />
        </mxCell>
        <mxCell id="2-oC6OEvbJuWoWcRU2Rp-74" value="N" style="text;html=1;align=center;verticalAlign=middle;whiteSpace=wrap;rounded=0;" parent="1" vertex="1">
          <mxGeometry x="515" y="-97.25" width="60" height="30" as="geometry" />
        </mxCell>
        <mxCell id="2-oC6OEvbJuWoWcRU2Rp-75" value="" style="endArrow=none;html=1;rounded=0;entryX=0.5;entryY=1;entryDx=0;entryDy=0;" parent="1" edge="1">
          <mxGeometry width="50" height="50" relative="1" as="geometry">
            <mxPoint x="529.29" y="107.5" as="sourcePoint" />
            <mxPoint x="529.29" y="57.5" as="targetPoint" />
          </mxGeometry>
        </mxCell>
        <mxCell id="2-oC6OEvbJuWoWcRU2Rp-76" value="Has" style="rhombus;whiteSpace=wrap;html=1;" parent="1" vertex="1">
          <mxGeometry x="73.13" y="14" width="90" height="80" as="geometry" />
        </mxCell>
        <mxCell id="2-oC6OEvbJuWoWcRU2Rp-77" value="" style="endArrow=none;html=1;rounded=0;entryX=0.5;entryY=1;entryDx=0;entryDy=0;exitX=0.5;exitY=0;exitDx=0;exitDy=0;" parent="1" source="2-oC6OEvbJuWoWcRU2Rp-76" target="2-oC6OEvbJuWoWcRU2Rp-6" edge="1">
          <mxGeometry width="50" height="50" relative="1" as="geometry">
            <mxPoint x="-36.87" y="7.25" as="sourcePoint" />
            <mxPoint x="-36.87" y="-42.75" as="targetPoint" />
          </mxGeometry>
        </mxCell>
        <mxCell id="2-oC6OEvbJuWoWcRU2Rp-79" value="1" style="text;html=1;align=center;verticalAlign=middle;whiteSpace=wrap;rounded=0;" parent="1" vertex="1">
          <mxGeometry x="103.13" y="-34" width="60" height="30" as="geometry" />
        </mxCell>
        <mxCell id="2-oC6OEvbJuWoWcRU2Rp-80" value="" style="endArrow=none;html=1;rounded=0;entryX=0.5;entryY=1;entryDx=0;entryDy=0;exitX=0;exitY=0.5;exitDx=0;exitDy=0;" parent="1" source="2-oC6OEvbJuWoWcRU2Rp-4" target="2-oC6OEvbJuWoWcRU2Rp-76" edge="1">
          <mxGeometry width="50" height="50" relative="1" as="geometry">
            <mxPoint x="252.41999999999996" y="532.25" as="sourcePoint" />
            <mxPoint x="252.41999999999996" y="482.25" as="targetPoint" />
            <Array as="points">
              <mxPoint x="118.13" y="138.5" />
            </Array>
          </mxGeometry>
        </mxCell>
        <mxCell id="2-oC6OEvbJuWoWcRU2Rp-84" value="" style="endArrow=none;html=1;rounded=0;entryX=0.847;entryY=0.349;entryDx=0;entryDy=0;exitX=0;exitY=0.25;exitDx=0;exitDy=0;entryPerimeter=0;" parent="1" edge="1">
          <mxGeometry width="50" height="50" relative="1" as="geometry">
            <mxPoint x="840" y="152.79" as="sourcePoint" />
            <mxPoint x="724.7600000000002" y="152.21000000000006" as="targetPoint" />
          </mxGeometry>
        </mxCell>
        <mxCell id="2-oC6OEvbJuWoWcRU2Rp-85" value="Send" style="rhombus;whiteSpace=wrap;html=1;" parent="1" vertex="1">
          <mxGeometry x="218.13" y="-34" width="90" height="80" as="geometry" />
        </mxCell>
        <mxCell id="2-oC6OEvbJuWoWcRU2Rp-86" value="" style="endArrow=none;html=1;rounded=0;entryX=0;entryY=0.5;entryDx=0;entryDy=0;exitX=0.5;exitY=0;exitDx=0;exitDy=0;" parent="1" source="2-oC6OEvbJuWoWcRU2Rp-85" target="2-oC6OEvbJuWoWcRU2Rp-2" edge="1">
          <mxGeometry width="50" height="50" relative="1" as="geometry">
            <mxPoint x="340" y="138" as="sourcePoint" />
            <mxPoint x="369" y="133" as="targetPoint" />
            <Array as="points">
              <mxPoint x="265" y="-127" />
            </Array>
          </mxGeometry>
        </mxCell>
        <mxCell id="2-oC6OEvbJuWoWcRU2Rp-87" value="M" style="text;html=1;align=center;verticalAlign=middle;whiteSpace=wrap;rounded=0;" parent="1" vertex="1">
          <mxGeometry x="258.13" y="78.5" width="60" height="30" as="geometry" />
        </mxCell>
        <mxCell id="2-oC6OEvbJuWoWcRU2Rp-88" value="1" style="text;html=1;align=center;verticalAlign=middle;whiteSpace=wrap;rounded=0;" parent="1" vertex="1">
          <mxGeometry x="427.5" y="-155" width="60" height="30" as="geometry" />
        </mxCell>
        <mxCell id="2-oC6OEvbJuWoWcRU2Rp-89" value="" style="endArrow=none;html=1;rounded=0;entryX=0.352;entryY=0.851;entryDx=0;entryDy=0;entryPerimeter=0;exitX=0.389;exitY=0;exitDx=0;exitDy=0;exitPerimeter=0;" parent="1" source="2-oC6OEvbJuWoWcRU2Rp-4" target="2-oC6OEvbJuWoWcRU2Rp-85" edge="1">
          <mxGeometry width="50" height="50" relative="1" as="geometry">
            <mxPoint x="352.12999999999994" y="168.5" as="sourcePoint" />
            <mxPoint x="268.13" y="48.5" as="targetPoint" />
          </mxGeometry>
        </mxCell>
        <mxCell id="2-oC6OEvbJuWoWcRU2Rp-91" value="" style="endArrow=none;html=1;rounded=0;entryX=0.352;entryY=0.851;entryDx=0;entryDy=0;entryPerimeter=0;exitX=0.389;exitY=0;exitDx=0;exitDy=0;exitPerimeter=0;" parent="1" edge="1">
          <mxGeometry width="50" height="50" relative="1" as="geometry">
            <mxPoint x="276.13" y="108.5" as="sourcePoint" />
            <mxPoint x="276.13" y="34.5" as="targetPoint" />
          </mxGeometry>
        </mxCell>
        <mxCell id="2-oC6OEvbJuWoWcRU2Rp-94" value="" style="endArrow=none;html=1;rounded=0;exitX=1;exitY=0.5;exitDx=0;exitDy=0;entryX=0;entryY=0.5;entryDx=0;entryDy=0;" parent="1" source="bBhkpNK5yPJ5Nh3VC-9j-27" target="2-oC6OEvbJuWoWcRU2Rp-1" edge="1">
          <mxGeometry width="50" height="50" relative="1" as="geometry">
            <mxPoint x="427.44980515339466" y="130.68019484660545" as="sourcePoint" />
            <mxPoint x="490" y="190" as="targetPoint" />
          </mxGeometry>
        </mxCell>
        <mxCell id="2-oC6OEvbJuWoWcRU2Rp-98" value="1" style="text;html=1;align=center;verticalAlign=middle;whiteSpace=wrap;rounded=0;" parent="1" vertex="1">
          <mxGeometry x="430" y="113.75" width="60" height="30" as="geometry" />
        </mxCell>
        <mxCell id="2-oC6OEvbJuWoWcRU2Rp-101" value="N" style="text;html=1;align=center;verticalAlign=middle;whiteSpace=wrap;rounded=0;" parent="1" vertex="1">
          <mxGeometry x="153.13" y="108.5" width="60" height="30" as="geometry" />
        </mxCell>
        <mxCell id="2-oC6OEvbJuWoWcRU2Rp-95" value="M" style="text;html=1;align=center;verticalAlign=middle;whiteSpace=wrap;rounded=0;" parent="1" vertex="1">
          <mxGeometry x="306" y="153.5" width="60" height="30" as="geometry" />
        </mxCell>
        <mxCell id="1-HmyPd1s2v8unVtLxTv-2" value="" style="endArrow=none;html=1;rounded=0;entryX=1;entryY=0.5;entryDx=0;entryDy=0;exitX=0.25;exitY=1;exitDx=0;exitDy=0;" parent="1" source="2-oC6OEvbJuWoWcRU2Rp-4" target="2-oC6OEvbJuWoWcRU2Rp-58" edge="1">
          <mxGeometry width="50" height="50" relative="1" as="geometry">
            <mxPoint x="558.13" y="178.5" as="sourcePoint" />
            <mxPoint x="608.13" y="128.5" as="targetPoint" />
          </mxGeometry>
        </mxCell>
        <mxCell id="1-HmyPd1s2v8unVtLxTv-3" value="" style="endArrow=none;html=1;rounded=0;entryX=1;entryY=0;entryDx=0;entryDy=0;exitX=0.346;exitY=0.986;exitDx=0;exitDy=0;exitPerimeter=0;" parent="1" source="2-oC6OEvbJuWoWcRU2Rp-4" target="2-oC6OEvbJuWoWcRU2Rp-57" edge="1">
          <mxGeometry width="50" height="50" relative="1" as="geometry">
            <mxPoint x="243.13" y="178.5" as="sourcePoint" />
            <mxPoint x="213.13" y="188.5" as="targetPoint" />
          </mxGeometry>
        </mxCell>
        <mxCell id="1-HmyPd1s2v8unVtLxTv-4" value="" style="endArrow=none;html=1;rounded=0;entryX=0.5;entryY=0;entryDx=0;entryDy=0;exitX=0.5;exitY=1;exitDx=0;exitDy=0;" parent="1" source="2-oC6OEvbJuWoWcRU2Rp-4" target="2-oC6OEvbJuWoWcRU2Rp-56" edge="1">
          <mxGeometry width="50" height="50" relative="1" as="geometry">
            <mxPoint x="253.13" y="188.5" as="sourcePoint" />
            <mxPoint x="223.13" y="198.5" as="targetPoint" />
          </mxGeometry>
        </mxCell>
        <mxCell id="1-HmyPd1s2v8unVtLxTv-5" value="" style="endArrow=none;html=1;rounded=0;entryX=0.5;entryY=0;entryDx=0;entryDy=0;exitX=0.613;exitY=1.005;exitDx=0;exitDy=0;exitPerimeter=0;" parent="1" source="2-oC6OEvbJuWoWcRU2Rp-4" target="2-oC6OEvbJuWoWcRU2Rp-55" edge="1">
          <mxGeometry width="50" height="50" relative="1" as="geometry">
            <mxPoint x="263.13" y="198.5" as="sourcePoint" />
            <mxPoint x="233.13" y="208.5" as="targetPoint" />
          </mxGeometry>
        </mxCell>
        <mxCell id="1-HmyPd1s2v8unVtLxTv-7" value="" style="endArrow=none;html=1;rounded=0;entryX=1;entryY=0.5;entryDx=0;entryDy=0;exitX=0;exitY=0.75;exitDx=0;exitDy=0;" parent="1" source="2-oC6OEvbJuWoWcRU2Rp-6" target="2-oC6OEvbJuWoWcRU2Rp-53" edge="1">
          <mxGeometry width="50" height="50" relative="1" as="geometry">
            <mxPoint x="283.13" y="218.5" as="sourcePoint" />
            <mxPoint x="253.13" y="228.5" as="targetPoint" />
          </mxGeometry>
        </mxCell>
        <mxCell id="1-HmyPd1s2v8unVtLxTv-8" value="" style="endArrow=none;html=1;rounded=0;entryX=1;entryY=1;entryDx=0;entryDy=0;exitX=0;exitY=0.25;exitDx=0;exitDy=0;" parent="1" source="2-oC6OEvbJuWoWcRU2Rp-6" target="2-oC6OEvbJuWoWcRU2Rp-52" edge="1">
          <mxGeometry width="50" height="50" relative="1" as="geometry">
            <mxPoint x="68.13" y="-21.5" as="sourcePoint" />
            <mxPoint x="50.13" y="-24.5" as="targetPoint" />
          </mxGeometry>
        </mxCell>
        <mxCell id="1-HmyPd1s2v8unVtLxTv-9" value="" style="endArrow=none;html=1;rounded=0;exitX=0.5;exitY=0;exitDx=0;exitDy=0;" parent="1" source="2-oC6OEvbJuWoWcRU2Rp-6" target="2-oC6OEvbJuWoWcRU2Rp-54" edge="1">
          <mxGeometry width="50" height="50" relative="1" as="geometry">
            <mxPoint x="78.13" y="-11.5" as="sourcePoint" />
            <mxPoint x="60.13" y="-14.5" as="targetPoint" />
          </mxGeometry>
        </mxCell>
        <mxCell id="1-HmyPd1s2v8unVtLxTv-10" value="" style="endArrow=none;html=1;rounded=0;entryX=0.5;entryY=0;entryDx=0;entryDy=0;exitX=0.5;exitY=1;exitDx=0;exitDy=0;" parent="1" source="2-oC6OEvbJuWoWcRU2Rp-1" target="2-oC6OEvbJuWoWcRU2Rp-24" edge="1">
          <mxGeometry width="50" height="50" relative="1" as="geometry">
            <mxPoint x="620" y="342.5" as="sourcePoint" />
            <mxPoint x="222" y="347" as="targetPoint" />
          </mxGeometry>
        </mxCell>
        <mxCell id="1-HmyPd1s2v8unVtLxTv-11" value="" style="endArrow=none;html=1;rounded=0;entryX=1;entryY=0;entryDx=0;entryDy=0;exitX=0;exitY=1;exitDx=0;exitDy=0;" parent="1" source="2-oC6OEvbJuWoWcRU2Rp-1" target="2-oC6OEvbJuWoWcRU2Rp-23" edge="1">
          <mxGeometry width="50" height="50" relative="1" as="geometry">
            <mxPoint x="650" y="327.4999999999998" as="sourcePoint" />
            <mxPoint x="232" y="357" as="targetPoint" />
          </mxGeometry>
        </mxCell>
        <mxCell id="1-HmyPd1s2v8unVtLxTv-13" value="" style="endArrow=none;html=1;rounded=0;entryX=0.664;entryY=0.997;entryDx=0;entryDy=0;entryPerimeter=0;exitX=0;exitY=0;exitDx=0;exitDy=0;" parent="1" source="2-oC6OEvbJuWoWcRU2Rp-20" target="2-oC6OEvbJuWoWcRU2Rp-1" edge="1">
          <mxGeometry width="50" height="50" relative="1" as="geometry">
            <mxPoint x="680" y="280" as="sourcePoint" />
            <mxPoint x="670.8800000000001" y="330.55999999999995" as="targetPoint" />
          </mxGeometry>
        </mxCell>
        <mxCell id="1-HmyPd1s2v8unVtLxTv-14" value="" style="endArrow=none;html=1;rounded=0;entryX=0.376;entryY=0.985;entryDx=0;entryDy=0;exitX=0.5;exitY=0;exitDx=0;exitDy=0;entryPerimeter=0;" parent="1" source="2-oC6OEvbJuWoWcRU2Rp-19" target="2-oC6OEvbJuWoWcRU2Rp-1" edge="1">
          <mxGeometry width="50" height="50" relative="1" as="geometry">
            <mxPoint x="270" y="380" as="sourcePoint" />
            <mxPoint x="665.1199999999999" y="327.1399999999999" as="targetPoint" />
          </mxGeometry>
        </mxCell>
        <mxCell id="1-HmyPd1s2v8unVtLxTv-15" value="" style="endArrow=none;html=1;rounded=0;entryX=0.75;entryY=1;entryDx=0;entryDy=0;exitX=0;exitY=0;exitDx=0;exitDy=0;" parent="1" source="2-oC6OEvbJuWoWcRU2Rp-21" target="2-oC6OEvbJuWoWcRU2Rp-1" edge="1">
          <mxGeometry width="50" height="50" relative="1" as="geometry">
            <mxPoint x="695" y="330.01999999999975" as="sourcePoint" />
            <mxPoint x="675" y="337" as="targetPoint" />
          </mxGeometry>
        </mxCell>
        <mxCell id="1-HmyPd1s2v8unVtLxTv-16" value="" style="endArrow=none;html=1;rounded=0;entryX=0;entryY=0.5;entryDx=0;entryDy=0;exitX=0.871;exitY=1.004;exitDx=0;exitDy=0;exitPerimeter=0;" parent="1" source="2-oC6OEvbJuWoWcRU2Rp-1" target="2-oC6OEvbJuWoWcRU2Rp-25" edge="1">
          <mxGeometry width="50" height="50" relative="1" as="geometry">
            <mxPoint x="710" y="327.4999999999998" as="sourcePoint" />
            <mxPoint x="685" y="347" as="targetPoint" />
          </mxGeometry>
        </mxCell>
        <mxCell id="1-HmyPd1s2v8unVtLxTv-17" value="" style="endArrow=none;html=1;rounded=0;exitX=0.25;exitY=1;exitDx=0;exitDy=0;entryX=1;entryY=0;entryDx=0;entryDy=0;" parent="1" source="2-oC6OEvbJuWoWcRU2Rp-1" target="2-oC6OEvbJuWoWcRU2Rp-26" edge="1">
          <mxGeometry width="50" height="50" relative="1" as="geometry">
            <mxPoint x="625" y="290" as="sourcePoint" />
            <mxPoint x="740" y="330" as="targetPoint" />
          </mxGeometry>
        </mxCell>
        <mxCell id="2-oC6OEvbJuWoWcRU2Rp-1" value="Personal_trainer" style="rounded=0;whiteSpace=wrap;html=1;" parent="1" vertex="1">
          <mxGeometry x="470" y="107.5" width="120" height="60" as="geometry" />
        </mxCell>
        <mxCell id="1-HmyPd1s2v8unVtLxTv-18" value="" style="endArrow=none;html=1;rounded=0;entryX=0;entryY=1;entryDx=0;entryDy=0;exitX=0.75;exitY=0;exitDx=0;exitDy=0;" parent="1" source="2-oC6OEvbJuWoWcRU2Rp-2" target="2-oC6OEvbJuWoWcRU2Rp-9" edge="1">
          <mxGeometry width="50" height="50" relative="1" as="geometry">
            <mxPoint x="647.5" y="-547.5" as="sourcePoint" />
            <mxPoint x="585.9357633272489" y="-194.49518343811246" as="targetPoint" />
          </mxGeometry>
        </mxCell>
        <mxCell id="1-HmyPd1s2v8unVtLxTv-19" value="" style="endArrow=none;html=1;rounded=0;entryX=0;entryY=1;entryDx=0;entryDy=0;exitX=0.5;exitY=0;exitDx=0;exitDy=0;" parent="1" source="2-oC6OEvbJuWoWcRU2Rp-2" target="2-oC6OEvbJuWoWcRU2Rp-8" edge="1">
          <mxGeometry width="50" height="50" relative="1" as="geometry">
            <mxPoint x="657.5" y="-537.5" as="sourcePoint" />
            <mxPoint x="727.5" y="-470.5" as="targetPoint" />
          </mxGeometry>
        </mxCell>
        <mxCell id="1-HmyPd1s2v8unVtLxTv-20" value="" style="endArrow=none;html=1;rounded=0;entryX=0;entryY=0.5;entryDx=0;entryDy=0;exitX=1;exitY=0.75;exitDx=0;exitDy=0;" parent="1" source="2-oC6OEvbJuWoWcRU2Rp-5" target="2-oC6OEvbJuWoWcRU2Rp-36" edge="1">
          <mxGeometry width="50" height="50" relative="1" as="geometry">
            <mxPoint x="695" y="364" as="sourcePoint" />
            <mxPoint x="875" y="364" as="targetPoint" />
            <Array as="points" />
          </mxGeometry>
        </mxCell>
        <mxCell id="1-HmyPd1s2v8unVtLxTv-21" value="" style="endArrow=none;html=1;rounded=0;entryX=1;entryY=1;entryDx=0;entryDy=0;exitX=0;exitY=0;exitDx=0;exitDy=0;" parent="1" source="2-oC6OEvbJuWoWcRU2Rp-41" target="2-oC6OEvbJuWoWcRU2Rp-5" edge="1">
          <mxGeometry width="50" height="50" relative="1" as="geometry">
            <mxPoint x="515" y="110" as="sourcePoint" />
            <mxPoint x="585" y="177" as="targetPoint" />
          </mxGeometry>
        </mxCell>
        <mxCell id="1-HmyPd1s2v8unVtLxTv-22" value="" style="endArrow=none;html=1;rounded=0;entryX=0;entryY=0;entryDx=0;entryDy=0;exitX=0;exitY=0.75;exitDx=0;exitDy=0;" parent="1" source="bBhkpNK5yPJ5Nh3VC-9j-15" target="2-oC6OEvbJuWoWcRU2Rp-42" edge="1">
          <mxGeometry width="50" height="50" relative="1" as="geometry">
            <mxPoint x="695" y="354" as="sourcePoint" />
            <mxPoint x="330" y="391" as="targetPoint" />
          </mxGeometry>
        </mxCell>
        <mxCell id="1-HmyPd1s2v8unVtLxTv-23" value="" style="endArrow=none;html=1;rounded=0;entryX=0.875;entryY=1.008;entryDx=0;entryDy=0;entryPerimeter=0;exitX=0;exitY=0;exitDx=0;exitDy=0;" parent="1" source="2-oC6OEvbJuWoWcRU2Rp-40" target="2-oC6OEvbJuWoWcRU2Rp-5" edge="1">
          <mxGeometry width="50" height="50" relative="1" as="geometry">
            <mxPoint x="695" y="344" as="sourcePoint" />
            <mxPoint x="340" y="401" as="targetPoint" />
          </mxGeometry>
        </mxCell>
        <mxCell id="1-HmyPd1s2v8unVtLxTv-24" value="" style="endArrow=none;html=1;rounded=0;entryX=0;entryY=0;entryDx=0;entryDy=0;exitX=0.75;exitY=1;exitDx=0;exitDy=0;" parent="1" source="2-oC6OEvbJuWoWcRU2Rp-5" target="2-oC6OEvbJuWoWcRU2Rp-37" edge="1">
          <mxGeometry width="50" height="50" relative="1" as="geometry">
            <mxPoint x="695" y="341.5" as="sourcePoint" />
            <mxPoint x="350" y="411" as="targetPoint" />
          </mxGeometry>
        </mxCell>
        <mxCell id="1-HmyPd1s2v8unVtLxTv-25" value="" style="endArrow=none;html=1;rounded=0;entryX=0;entryY=1;entryDx=0;entryDy=0;exitX=1;exitY=0;exitDx=0;exitDy=0;" parent="1" source="2-oC6OEvbJuWoWcRU2Rp-38" target="2-oC6OEvbJuWoWcRU2Rp-5" edge="1">
          <mxGeometry width="50" height="50" relative="1" as="geometry">
            <mxPoint x="695" y="326.5" as="sourcePoint" />
            <mxPoint x="360" y="421" as="targetPoint" />
          </mxGeometry>
        </mxCell>
        <mxCell id="1-HmyPd1s2v8unVtLxTv-26" value="" style="endArrow=none;html=1;rounded=0;entryX=1;entryY=0;entryDx=0;entryDy=0;exitX=0.25;exitY=1;exitDx=0;exitDy=0;" parent="1" source="2-oC6OEvbJuWoWcRU2Rp-5" target="2-oC6OEvbJuWoWcRU2Rp-34" edge="1">
          <mxGeometry width="50" height="50" relative="1" as="geometry">
            <mxPoint x="565" y="160" as="sourcePoint" />
            <mxPoint x="635" y="227" as="targetPoint" />
          </mxGeometry>
        </mxCell>
        <mxCell id="1-HmyPd1s2v8unVtLxTv-27" value="" style="endArrow=none;html=1;rounded=0;entryX=0.5;entryY=0;entryDx=0;entryDy=0;" parent="1" source="2-oC6OEvbJuWoWcRU2Rp-5" target="2-oC6OEvbJuWoWcRU2Rp-35" edge="1">
          <mxGeometry width="50" height="50" relative="1" as="geometry">
            <mxPoint x="575" y="170" as="sourcePoint" />
            <mxPoint x="880" y="230" as="targetPoint" />
          </mxGeometry>
        </mxCell>
        <mxCell id="1-HmyPd1s2v8unVtLxTv-28" value="" style="endArrow=none;html=1;rounded=0;entryX=1;entryY=0;entryDx=0;entryDy=0;exitX=0.333;exitY=0.875;exitDx=0;exitDy=0;exitPerimeter=0;" parent="1" source="2-oC6OEvbJuWoWcRU2Rp-5" target="2-oC6OEvbJuWoWcRU2Rp-39" edge="1">
          <mxGeometry width="50" height="50" relative="1" as="geometry">
            <mxPoint x="585" y="180" as="sourcePoint" />
            <mxPoint x="655" y="247" as="targetPoint" />
          </mxGeometry>
        </mxCell>
        <mxCell id="bBhkpNK5yPJ5Nh3VC-9j-2" value="Workout" style="rounded=0;whiteSpace=wrap;html=1;" parent="1" vertex="1">
          <mxGeometry x="1075" y="-14" width="120" height="60" as="geometry" />
        </mxCell>
        <mxCell id="bBhkpNK5yPJ5Nh3VC-9j-3" value="&lt;u&gt;workout_num&lt;/u&gt;" style="ellipse;whiteSpace=wrap;html=1;" parent="1" vertex="1">
          <mxGeometry x="1010" y="-81.5" width="90" height="40" as="geometry" />
        </mxCell>
        <mxCell id="bBhkpNK5yPJ5Nh3VC-9j-4" value="tags" style="ellipse;whiteSpace=wrap;html=1;" parent="1" vertex="1">
          <mxGeometry x="1125" y="-77.25" width="90" height="40" as="geometry" />
        </mxCell>
        <mxCell id="bBhkpNK5yPJ5Nh3VC-9j-5" value="&lt;u&gt;entry&lt;/u&gt;" style="ellipse;whiteSpace=wrap;html=1;" parent="1" vertex="1">
          <mxGeometry x="730" y="-260" width="90" height="40" as="geometry" />
        </mxCell>
        <mxCell id="bBhkpNK5yPJ5Nh3VC-9j-6" value="workout_name" style="ellipse;whiteSpace=wrap;html=1;" parent="1" vertex="1">
          <mxGeometry x="1085" y="-117.25" width="90" height="40" as="geometry" />
        </mxCell>
        <mxCell id="bBhkpNK5yPJ5Nh3VC-9j-7" value="premium" style="ellipse;whiteSpace=wrap;html=1;" parent="1" vertex="1">
          <mxGeometry x="1180" y="-117.25" width="90" height="45" as="geometry" />
        </mxCell>
        <mxCell id="bBhkpNK5yPJ5Nh3VC-9j-10" value="date" style="ellipse;whiteSpace=wrap;html=1;" parent="1" vertex="1">
          <mxGeometry x="720" y="-220" width="90" height="40" as="geometry" />
        </mxCell>
        <mxCell id="bBhkpNK5yPJ5Nh3VC-9j-12" value="Athlete_num" style="ellipse;whiteSpace=wrap;html=1;" parent="1" vertex="1">
          <mxGeometry x="760" y="-300" width="90" height="40" as="geometry" />
        </mxCell>
        <mxCell id="bBhkpNK5yPJ5Nh3VC-9j-13" value="Contains" style="rhombus;whiteSpace=wrap;html=1;" parent="1" vertex="1">
          <mxGeometry x="1090" y="97.5" width="90" height="80" as="geometry" />
        </mxCell>
        <mxCell id="bBhkpNK5yPJ5Nh3VC-9j-14" value="" style="endArrow=none;html=1;rounded=0;entryX=0.5;entryY=1;entryDx=0;entryDy=0;" parent="1" edge="1">
          <mxGeometry width="50" height="50" relative="1" as="geometry">
            <mxPoint x="1135" y="98.5" as="sourcePoint" />
            <mxPoint x="1135" y="46.5" as="targetPoint" />
          </mxGeometry>
        </mxCell>
        <mxCell id="bBhkpNK5yPJ5Nh3VC-9j-15" value="N" style="text;html=1;align=center;verticalAlign=middle;whiteSpace=wrap;rounded=0;" parent="1" vertex="1">
          <mxGeometry x="960" y="137.5" width="60" height="30" as="geometry" />
        </mxCell>
        <mxCell id="bBhkpNK5yPJ5Nh3VC-9j-16" value="M" style="text;html=1;align=center;verticalAlign=middle;whiteSpace=wrap;rounded=0;" parent="1" vertex="1">
          <mxGeometry x="1115" y="46" width="60" height="30" as="geometry" />
        </mxCell>
        <mxCell id="bBhkpNK5yPJ5Nh3VC-9j-17" value="" style="endArrow=none;html=1;rounded=0;entryX=1;entryY=0.5;entryDx=0;entryDy=0;exitX=0;exitY=0.5;exitDx=0;exitDy=0;" parent="1" source="bBhkpNK5yPJ5Nh3VC-9j-13" target="2-oC6OEvbJuWoWcRU2Rp-5" edge="1">
          <mxGeometry width="50" height="50" relative="1" as="geometry">
            <mxPoint x="1174.29" y="211.5" as="sourcePoint" />
            <mxPoint x="1174.29" y="161.5" as="targetPoint" />
          </mxGeometry>
        </mxCell>
        <mxCell id="bBhkpNK5yPJ5Nh3VC-9j-19" value="" style="endArrow=none;html=1;rounded=0;entryX=0.75;entryY=0;entryDx=0;entryDy=0;exitX=0.5;exitY=1;exitDx=0;exitDy=0;" parent="1" source="bBhkpNK5yPJ5Nh3VC-9j-4" target="bBhkpNK5yPJ5Nh3VC-9j-2" edge="1">
          <mxGeometry width="50" height="50" relative="1" as="geometry">
            <mxPoint x="1345" y="-200.5" as="sourcePoint" />
            <mxPoint x="1370" y="-85.24999999999977" as="targetPoint" />
          </mxGeometry>
        </mxCell>
        <mxCell id="bBhkpNK5yPJ5Nh3VC-9j-20" value="" style="endArrow=none;html=1;rounded=0;entryX=0.5;entryY=0;entryDx=0;entryDy=0;exitX=0;exitY=1;exitDx=0;exitDy=0;" parent="1" source="bBhkpNK5yPJ5Nh3VC-9j-6" target="bBhkpNK5yPJ5Nh3VC-9j-2" edge="1">
          <mxGeometry width="50" height="50" relative="1" as="geometry">
            <mxPoint x="1230" y="-281.5" as="sourcePoint" />
            <mxPoint x="1340" y="-85.24999999999977" as="targetPoint" />
          </mxGeometry>
        </mxCell>
        <mxCell id="bBhkpNK5yPJ5Nh3VC-9j-21" value="" style="endArrow=none;html=1;rounded=0;entryX=0.5;entryY=1;entryDx=0;entryDy=0;exitX=0.25;exitY=0;exitDx=0;exitDy=0;" parent="1" source="bBhkpNK5yPJ5Nh3VC-9j-2" target="bBhkpNK5yPJ5Nh3VC-9j-3" edge="1">
          <mxGeometry width="50" height="50" relative="1" as="geometry">
            <mxPoint x="1310" y="-70.24999999999977" as="sourcePoint" />
            <mxPoint x="1135.0000000000005" y="-101.50000000000023" as="targetPoint" />
          </mxGeometry>
        </mxCell>
        <mxCell id="bBhkpNK5yPJ5Nh3VC-9j-22" value="" style="endArrow=none;html=1;rounded=0;entryX=1;entryY=0.25;entryDx=0;entryDy=0;exitX=0.5;exitY=1;exitDx=0;exitDy=0;" parent="1" source="bBhkpNK5yPJ5Nh3VC-9j-7" target="bBhkpNK5yPJ5Nh3VC-9j-2" edge="1">
          <mxGeometry width="50" height="50" relative="1" as="geometry">
            <mxPoint x="1355" y="-246.75" as="sourcePoint" />
            <mxPoint x="1415" y="-25.499999999999773" as="targetPoint" />
          </mxGeometry>
        </mxCell>
        <mxCell id="bBhkpNK5yPJ5Nh3VC-9j-28" value="" style="endArrow=none;html=1;rounded=0;entryX=0;entryY=1;entryDx=0;entryDy=0;" parent="1" target="bBhkpNK5yPJ5Nh3VC-9j-27" edge="1">
          <mxGeometry width="50" height="50" relative="1" as="geometry">
            <mxPoint x="318.13" y="157.5" as="sourcePoint" />
            <mxPoint x="371.13" y="157.5" as="targetPoint" />
          </mxGeometry>
        </mxCell>
        <mxCell id="2-oC6OEvbJuWoWcRU2Rp-4" value="Message" style="rounded=0;whiteSpace=wrap;html=1;" parent="1" vertex="1">
          <mxGeometry x="203.13" y="107.5" width="120" height="60" as="geometry" />
        </mxCell>
        <mxCell id="bBhkpNK5yPJ5Nh3VC-9j-29" value="" style="endArrow=none;html=1;rounded=0;entryX=0;entryY=1;entryDx=0;entryDy=0;" parent="1" edge="1">
          <mxGeometry width="50" height="50" relative="1" as="geometry">
            <mxPoint x="323.13" y="117.5" as="sourcePoint" />
            <mxPoint x="378" y="118" as="targetPoint" />
          </mxGeometry>
        </mxCell>
        <mxCell id="bBhkpNK5yPJ5Nh3VC-9j-27" value="Send" style="rhombus;whiteSpace=wrap;html=1;" parent="1" vertex="1">
          <mxGeometry x="350" y="97.5" width="90" height="80" as="geometry" />
        </mxCell>
        <mxCell id="bBhkpNK5yPJ5Nh3VC-9j-31" value="Has" style="rhombus;whiteSpace=wrap;html=1;" parent="1" vertex="1">
          <mxGeometry x="1270" y="-111.5" width="80" height="80" as="geometry" />
        </mxCell>
        <mxCell id="bBhkpNK5yPJ5Nh3VC-9j-33" value="" style="endArrow=none;html=1;rounded=0;exitX=0.5;exitY=0;exitDx=0;exitDy=0;entryX=0.5;entryY=1;entryDx=0;entryDy=0;" parent="1" source="a5W6hC7SfEO5U4nKYkXS-49" target="bBhkpNK5yPJ5Nh3VC-9j-31" edge="1">
          <mxGeometry width="50" height="50" relative="1" as="geometry">
            <mxPoint x="1695" y="69" as="sourcePoint" />
            <mxPoint x="1555" y="-9.5" as="targetPoint" />
          </mxGeometry>
        </mxCell>
        <mxCell id="bBhkpNK5yPJ5Nh3VC-9j-34" value="1" style="text;html=1;align=center;verticalAlign=middle;whiteSpace=wrap;rounded=0;" parent="1" vertex="1">
          <mxGeometry x="1290" y="248.5" width="60" height="30" as="geometry" />
        </mxCell>
        <mxCell id="bBhkpNK5yPJ5Nh3VC-9j-36" value="N" style="text;html=1;align=center;verticalAlign=middle;whiteSpace=wrap;rounded=0;" parent="1" vertex="1">
          <mxGeometry x="1260" y="-195.5" width="60" height="30" as="geometry" />
        </mxCell>
        <mxCell id="bBhkpNK5yPJ5Nh3VC-9j-38" value="" style="endArrow=none;html=1;rounded=0;entryX=0;entryY=0;entryDx=0;entryDy=0;exitX=1;exitY=1;exitDx=0;exitDy=0;" parent="1" source="bBhkpNK5yPJ5Nh3VC-9j-10" target="bBhkpNK5yPJ5Nh3VC-9j-1" edge="1">
          <mxGeometry width="50" height="50" relative="1" as="geometry">
            <mxPoint x="640" y="-161.75" as="sourcePoint" />
            <mxPoint x="655" y="-135.75" as="targetPoint" />
          </mxGeometry>
        </mxCell>
        <mxCell id="bBhkpNK5yPJ5Nh3VC-9j-40" value="" style="endArrow=none;html=1;rounded=0;entryX=0.186;entryY=0.028;entryDx=0;entryDy=0;exitX=1;exitY=1;exitDx=0;exitDy=0;entryPerimeter=0;" parent="1" source="bBhkpNK5yPJ5Nh3VC-9j-12" target="bBhkpNK5yPJ5Nh3VC-9j-1" edge="1">
          <mxGeometry width="50" height="50" relative="1" as="geometry">
            <mxPoint x="660" y="-141.75" as="sourcePoint" />
            <mxPoint x="675" y="-115.75" as="targetPoint" />
          </mxGeometry>
        </mxCell>
        <mxCell id="bBhkpNK5yPJ5Nh3VC-9j-41" value="" style="endArrow=none;html=1;rounded=0;exitX=1;exitY=1;exitDx=0;exitDy=0;entryX=0.09;entryY=0.018;entryDx=0;entryDy=0;entryPerimeter=0;" parent="1" source="bBhkpNK5yPJ5Nh3VC-9j-5" target="bBhkpNK5yPJ5Nh3VC-9j-1" edge="1">
          <mxGeometry width="50" height="50" relative="1" as="geometry">
            <mxPoint x="670" y="-131.75" as="sourcePoint" />
            <mxPoint x="950" y="-160" as="targetPoint" />
          </mxGeometry>
        </mxCell>
        <mxCell id="2-oC6OEvbJuWoWcRU2Rp-5" value="Exercise" style="rounded=0;whiteSpace=wrap;html=1;" parent="1" vertex="1">
          <mxGeometry x="840" y="107.5" width="120" height="60" as="geometry" />
        </mxCell>
        <mxCell id="MHGE348h0G7RGyUo8SNj-3" value="" style="endArrow=none;html=1;rounded=0;exitX=0.419;exitY=0.991;exitDx=0;exitDy=0;entryX=0.374;entryY=0.121;entryDx=0;entryDy=0;entryPerimeter=0;exitPerimeter=0;" parent="1" source="a5W6hC7SfEO5U4nKYkXS-20" target="bBhkpNK5yPJ5Nh3VC-9j-31" edge="1">
          <mxGeometry width="50" height="50" relative="1" as="geometry">
            <mxPoint x="1684.38" y="-135" as="sourcePoint" />
            <mxPoint x="1684.38" y="-72" as="targetPoint" />
          </mxGeometry>
        </mxCell>
        <mxCell id="MHGE348h0G7RGyUo8SNj-7" value="" style="shape=link;html=1;rounded=0;width=19.6969696969697;" parent="1" edge="1">
          <mxGeometry width="100" relative="1" as="geometry">
            <mxPoint x="745" y="-125.8" as="sourcePoint" />
            <mxPoint x="845" y="-125.8" as="targetPoint" />
          </mxGeometry>
        </mxCell>
        <mxCell id="bBhkpNK5yPJ5Nh3VC-9j-1" value="Workout_Progress" style="rounded=0;whiteSpace=wrap;html=1;" parent="1" vertex="1">
          <mxGeometry x="840" y="-157.25" width="120" height="60" as="geometry" />
        </mxCell>
        <mxCell id="MHGE348h0G7RGyUo8SNj-2" value="Register" style="rhombus;whiteSpace=wrap;html=1;" parent="1" vertex="1">
          <mxGeometry x="680" y="-165.5" width="90" height="80" as="geometry" />
        </mxCell>
        <mxCell id="MHGE348h0G7RGyUo8SNj-8" value="" style="endArrow=none;html=1;rounded=0;entryX=1;entryY=0.5;entryDx=0;entryDy=0;exitX=0;exitY=0.5;exitDx=0;exitDy=0;" parent="1" source="MHGE348h0G7RGyUo8SNj-2" edge="1">
          <mxGeometry width="50" height="50" relative="1" as="geometry">
            <mxPoint x="680" y="-123.5" as="sourcePoint" />
            <mxPoint x="592.5" y="-125.25" as="targetPoint" />
          </mxGeometry>
        </mxCell>
        <mxCell id="MHGE348h0G7RGyUo8SNj-9" value="N" style="text;html=1;align=center;verticalAlign=middle;whiteSpace=wrap;rounded=0;" parent="1" vertex="1">
          <mxGeometry x="798" y="-121.5" width="60" height="30" as="geometry" />
        </mxCell>
        <mxCell id="MHGE348h0G7RGyUo8SNj-10" value="1" style="text;html=1;align=center;verticalAlign=middle;whiteSpace=wrap;rounded=0;" parent="1" vertex="1">
          <mxGeometry x="575" y="-131.5" width="60" height="30" as="geometry" />
        </mxCell>
        <mxCell id="a5W6hC7SfEO5U4nKYkXS-1" value="Athlete_weight" style="rounded=0;whiteSpace=wrap;html=1;" parent="1" vertex="1">
          <mxGeometry x="213.13" y="-310" width="120" height="60" as="geometry" />
        </mxCell>
        <mxCell id="a5W6hC7SfEO5U4nKYkXS-2" value="Edits" style="rhombus;whiteSpace=wrap;html=1;rotation=30;" parent="1" vertex="1">
          <mxGeometry x="370" y="-260" width="80" height="80" as="geometry" />
        </mxCell>
        <mxCell id="a5W6hC7SfEO5U4nKYkXS-3" value="" style="endArrow=none;html=1;rounded=0;entryX=1;entryY=0.5;entryDx=0;entryDy=0;exitX=0;exitY=0;exitDx=0;exitDy=0;" parent="1" source="a5W6hC7SfEO5U4nKYkXS-2" target="a5W6hC7SfEO5U4nKYkXS-1" edge="1">
          <mxGeometry width="50" height="50" relative="1" as="geometry">
            <mxPoint x="481.24" y="-299.41999999999996" as="sourcePoint" />
            <mxPoint x="366.0000000000002" y="-299.9999999999999" as="targetPoint" />
          </mxGeometry>
        </mxCell>
        <mxCell id="a5W6hC7SfEO5U4nKYkXS-4" value="" style="endArrow=none;html=1;rounded=0;exitX=1;exitY=0.5;exitDx=0;exitDy=0;entryX=0.25;entryY=0;entryDx=0;entryDy=0;" parent="1" source="a5W6hC7SfEO5U4nKYkXS-2" target="2-oC6OEvbJuWoWcRU2Rp-2" edge="1">
          <mxGeometry width="50" height="50" relative="1" as="geometry">
            <mxPoint x="340" y="-197.18" as="sourcePoint" />
            <mxPoint x="410" y="-197.68" as="targetPoint" />
          </mxGeometry>
        </mxCell>
        <mxCell id="a5W6hC7SfEO5U4nKYkXS-5" value="N" style="text;html=1;align=center;verticalAlign=middle;whiteSpace=wrap;rounded=0;" parent="1" vertex="1">
          <mxGeometry x="310" y="-305" width="60" height="30" as="geometry" />
        </mxCell>
        <mxCell id="a5W6hC7SfEO5U4nKYkXS-6" value="" style="endArrow=none;html=1;rounded=0;entryX=0.75;entryY=1;entryDx=0;entryDy=0;exitX=0;exitY=1;exitDx=0;exitDy=0;" parent="1" source="a5W6hC7SfEO5U4nKYkXS-2" target="a5W6hC7SfEO5U4nKYkXS-1" edge="1">
          <mxGeometry width="50" height="50" relative="1" as="geometry">
            <mxPoint x="278.37" y="-179.42000000000002" as="sourcePoint" />
            <mxPoint x="163.13000000000022" y="-179.99999999999994" as="targetPoint" />
          </mxGeometry>
        </mxCell>
        <mxCell id="a5W6hC7SfEO5U4nKYkXS-7" value="1" style="text;html=1;align=center;verticalAlign=middle;whiteSpace=wrap;rounded=0;" parent="1" vertex="1">
          <mxGeometry x="472.5" y="-187.25" width="60" height="30" as="geometry" />
        </mxCell>
        <mxCell id="a5W6hC7SfEO5U4nKYkXS-10" value="date" style="ellipse;whiteSpace=wrap;html=1;" parent="1" vertex="1">
          <mxGeometry x="153.13" y="-383" width="90" height="40" as="geometry" />
        </mxCell>
        <mxCell id="a5W6hC7SfEO5U4nKYkXS-11" value="weight" style="ellipse;whiteSpace=wrap;html=1;" parent="1" vertex="1">
          <mxGeometry x="305" y="-383" width="90" height="40" as="geometry" />
        </mxCell>
        <mxCell id="a5W6hC7SfEO5U4nKYkXS-12" value="" style="endArrow=none;html=1;rounded=0;entryX=0;entryY=1;entryDx=0;entryDy=0;exitX=0.75;exitY=0;exitDx=0;exitDy=0;" parent="1" target="a5W6hC7SfEO5U4nKYkXS-11" edge="1">
          <mxGeometry width="50" height="50" relative="1" as="geometry">
            <mxPoint x="306.5" y="-310" as="sourcePoint" />
            <mxPoint x="329.4357633272489" y="-347.49518343811246" as="targetPoint" />
          </mxGeometry>
        </mxCell>
        <mxCell id="a5W6hC7SfEO5U4nKYkXS-13" value="" style="endArrow=none;html=1;rounded=0;entryX=1;entryY=1;entryDx=0;entryDy=0;exitX=0.25;exitY=0;exitDx=0;exitDy=0;" parent="1" source="a5W6hC7SfEO5U4nKYkXS-1" target="a5W6hC7SfEO5U4nKYkXS-10" edge="1">
          <mxGeometry width="50" height="50" relative="1" as="geometry">
            <mxPoint x="276.5" y="-310" as="sourcePoint" />
            <mxPoint x="471" y="-623.5" as="targetPoint" />
          </mxGeometry>
        </mxCell>
        <mxCell id="a5W6hC7SfEO5U4nKYkXS-14" value="&lt;u&gt;num_Athlete&lt;/u&gt;" style="ellipse;whiteSpace=wrap;html=1;" parent="1" vertex="1">
          <mxGeometry x="88.13" y="-330" width="90" height="40" as="geometry" />
        </mxCell>
        <mxCell id="a5W6hC7SfEO5U4nKYkXS-15" value="" style="endArrow=none;html=1;rounded=0;entryX=1;entryY=0.5;entryDx=0;entryDy=0;exitX=0;exitY=0.25;exitDx=0;exitDy=0;" parent="1" source="a5W6hC7SfEO5U4nKYkXS-1" target="a5W6hC7SfEO5U4nKYkXS-14" edge="1">
          <mxGeometry width="50" height="50" relative="1" as="geometry">
            <mxPoint x="253" y="-300" as="sourcePoint" />
            <mxPoint x="240" y="-339" as="targetPoint" />
          </mxGeometry>
        </mxCell>
        <mxCell id="a5W6hC7SfEO5U4nKYkXS-18" value="" style="endArrow=none;html=1;rounded=0;entryX=0;entryY=0.5;entryDx=0;entryDy=0;exitX=0.5;exitY=0;exitDx=0;exitDy=0;" parent="1" source="bBhkpNK5yPJ5Nh3VC-9j-1" target="a5W6hC7SfEO5U4nKYkXS-19" edge="1">
          <mxGeometry width="50" height="50" relative="1" as="geometry">
            <mxPoint x="920" y="-140" as="sourcePoint" />
            <mxPoint x="960" y="-299.9999999999998" as="targetPoint" />
            <Array as="points">
              <mxPoint x="900" y="-400" />
            </Array>
          </mxGeometry>
        </mxCell>
        <mxCell id="a5W6hC7SfEO5U4nKYkXS-22" value="" style="endArrow=none;html=1;rounded=0;entryX=0;entryY=0.5;entryDx=0;entryDy=0;exitX=0.75;exitY=0;exitDx=0;exitDy=0;" parent="1" source="bBhkpNK5yPJ5Nh3VC-9j-1" target="a5W6hC7SfEO5U4nKYkXS-20" edge="1">
          <mxGeometry width="50" height="50" relative="1" as="geometry">
            <mxPoint x="1020" y="-279.9999999999998" as="sourcePoint" />
            <mxPoint x="1260" y="-320" as="targetPoint" />
            <Array as="points">
              <mxPoint x="930" y="-220" />
            </Array>
          </mxGeometry>
        </mxCell>
        <mxCell id="a5W6hC7SfEO5U4nKYkXS-19" value="Time_Progress" style="rounded=0;whiteSpace=wrap;html=1;" parent="1" vertex="1">
          <mxGeometry x="1250" y="-430" width="120" height="60" as="geometry" />
        </mxCell>
        <mxCell id="a5W6hC7SfEO5U4nKYkXS-20" value="Reps_Progress" style="rounded=0;whiteSpace=wrap;html=1;" parent="1" vertex="1">
          <mxGeometry x="1250" y="-250" width="120" height="60" as="geometry" />
        </mxCell>
        <mxCell id="a5W6hC7SfEO5U4nKYkXS-24" value="set_num" style="ellipse;whiteSpace=wrap;html=1;" parent="1" vertex="1">
          <mxGeometry x="1315" y="-500" width="90" height="40" as="geometry" />
        </mxCell>
        <mxCell id="a5W6hC7SfEO5U4nKYkXS-25" value="time" style="ellipse;whiteSpace=wrap;html=1;" parent="1" vertex="1">
          <mxGeometry x="1415" y="-500" width="90" height="40" as="geometry" />
        </mxCell>
        <mxCell id="a5W6hC7SfEO5U4nKYkXS-26" value="num_Ex" style="ellipse;whiteSpace=wrap;html=1;" parent="1" vertex="1">
          <mxGeometry x="1215" y="-500" width="90" height="40" as="geometry" />
        </mxCell>
        <mxCell id="a5W6hC7SfEO5U4nKYkXS-27" value="&lt;u&gt;entry&lt;/u&gt;" style="ellipse;whiteSpace=wrap;html=1;" parent="1" vertex="1">
          <mxGeometry x="1115" y="-500" width="90" height="40" as="geometry" />
        </mxCell>
        <mxCell id="a5W6hC7SfEO5U4nKYkXS-29" value="&lt;u&gt;entry&lt;/u&gt;" style="ellipse;whiteSpace=wrap;html=1;" parent="1" vertex="1">
          <mxGeometry x="1162" y="-333" width="90" height="40" as="geometry" />
        </mxCell>
        <mxCell id="a5W6hC7SfEO5U4nKYkXS-30" value="weight_used" style="ellipse;whiteSpace=wrap;html=1;" parent="1" vertex="1">
          <mxGeometry x="1370" y="-288" width="90" height="40" as="geometry" />
        </mxCell>
        <mxCell id="a5W6hC7SfEO5U4nKYkXS-31" value="reps_made" style="ellipse;whiteSpace=wrap;html=1;" parent="1" vertex="1">
          <mxGeometry x="1330" y="-325" width="90" height="40" as="geometry" />
        </mxCell>
        <mxCell id="a5W6hC7SfEO5U4nKYkXS-32" value="set_num" style="ellipse;whiteSpace=wrap;html=1;" parent="1" vertex="1">
          <mxGeometry x="1250" y="-345" width="90" height="40" as="geometry" />
        </mxCell>
        <mxCell id="a5W6hC7SfEO5U4nKYkXS-33" value="num_Ex" style="ellipse;whiteSpace=wrap;html=1;" parent="1" vertex="1">
          <mxGeometry x="1230" y="-305" width="90" height="40" as="geometry" />
        </mxCell>
        <mxCell id="a5W6hC7SfEO5U4nKYkXS-34" value="" style="endArrow=none;html=1;rounded=0;entryX=0;entryY=0;entryDx=0;entryDy=0;exitX=0.5;exitY=1;exitDx=0;exitDy=0;" parent="1" source="a5W6hC7SfEO5U4nKYkXS-29" target="a5W6hC7SfEO5U4nKYkXS-20" edge="1">
          <mxGeometry width="50" height="50" relative="1" as="geometry">
            <mxPoint x="847" y="-256" as="sourcePoint" />
            <mxPoint x="872" y="-146" as="targetPoint" />
          </mxGeometry>
        </mxCell>
        <mxCell id="a5W6hC7SfEO5U4nKYkXS-36" value="" style="endArrow=none;html=1;rounded=0;entryX=0.25;entryY=0;entryDx=0;entryDy=0;exitX=0.5;exitY=1;exitDx=0;exitDy=0;" parent="1" source="a5W6hC7SfEO5U4nKYkXS-33" target="a5W6hC7SfEO5U4nKYkXS-20" edge="1">
          <mxGeometry width="50" height="50" relative="1" as="geometry">
            <mxPoint x="1510" y="-180" as="sourcePoint" />
            <mxPoint x="1553" y="-137" as="targetPoint" />
          </mxGeometry>
        </mxCell>
        <mxCell id="a5W6hC7SfEO5U4nKYkXS-37" value="" style="endArrow=none;html=1;rounded=0;entryX=0.577;entryY=0;entryDx=0;entryDy=0;exitX=1;exitY=1;exitDx=0;exitDy=0;entryPerimeter=0;" parent="1" source="a5W6hC7SfEO5U4nKYkXS-32" target="a5W6hC7SfEO5U4nKYkXS-20" edge="1">
          <mxGeometry width="50" height="50" relative="1" as="geometry">
            <mxPoint x="1237" y="-263" as="sourcePoint" />
            <mxPoint x="1280" y="-220" as="targetPoint" />
          </mxGeometry>
        </mxCell>
        <mxCell id="a5W6hC7SfEO5U4nKYkXS-38" value="" style="endArrow=none;html=1;rounded=0;entryX=0.698;entryY=0.013;entryDx=0;entryDy=0;exitX=0;exitY=1;exitDx=0;exitDy=0;entryPerimeter=0;" parent="1" source="a5W6hC7SfEO5U4nKYkXS-31" target="a5W6hC7SfEO5U4nKYkXS-20" edge="1">
          <mxGeometry width="50" height="50" relative="1" as="geometry">
            <mxPoint x="1247" y="-253" as="sourcePoint" />
            <mxPoint x="1290" y="-210" as="targetPoint" />
          </mxGeometry>
        </mxCell>
        <mxCell id="a5W6hC7SfEO5U4nKYkXS-39" value="" style="endArrow=none;html=1;rounded=0;entryX=1;entryY=0;entryDx=0;entryDy=0;exitX=0;exitY=1;exitDx=0;exitDy=0;" parent="1" source="a5W6hC7SfEO5U4nKYkXS-30" target="a5W6hC7SfEO5U4nKYkXS-20" edge="1">
          <mxGeometry width="50" height="50" relative="1" as="geometry">
            <mxPoint x="1257" y="-243" as="sourcePoint" />
            <mxPoint x="1300" y="-200" as="targetPoint" />
          </mxGeometry>
        </mxCell>
        <mxCell id="a5W6hC7SfEO5U4nKYkXS-40" value="" style="endArrow=none;html=1;rounded=0;entryX=0;entryY=0;entryDx=0;entryDy=0;exitX=0.5;exitY=1;exitDx=0;exitDy=0;" parent="1" source="a5W6hC7SfEO5U4nKYkXS-27" target="a5W6hC7SfEO5U4nKYkXS-19" edge="1">
          <mxGeometry width="50" height="50" relative="1" as="geometry">
            <mxPoint x="1267" y="-233" as="sourcePoint" />
            <mxPoint x="1310" y="-190" as="targetPoint" />
          </mxGeometry>
        </mxCell>
        <mxCell id="a5W6hC7SfEO5U4nKYkXS-41" value="" style="endArrow=none;html=1;rounded=0;entryX=0.25;entryY=0;entryDx=0;entryDy=0;exitX=0.5;exitY=1;exitDx=0;exitDy=0;" parent="1" source="a5W6hC7SfEO5U4nKYkXS-26" target="a5W6hC7SfEO5U4nKYkXS-19" edge="1">
          <mxGeometry width="50" height="50" relative="1" as="geometry">
            <mxPoint x="1170" y="-450" as="sourcePoint" />
            <mxPoint x="1260" y="-420" as="targetPoint" />
          </mxGeometry>
        </mxCell>
        <mxCell id="a5W6hC7SfEO5U4nKYkXS-42" value="" style="endArrow=none;html=1;rounded=0;entryX=0.75;entryY=0;entryDx=0;entryDy=0;exitX=0.5;exitY=1;exitDx=0;exitDy=0;" parent="1" source="a5W6hC7SfEO5U4nKYkXS-24" target="a5W6hC7SfEO5U4nKYkXS-19" edge="1">
          <mxGeometry width="50" height="50" relative="1" as="geometry">
            <mxPoint x="1180" y="-440" as="sourcePoint" />
            <mxPoint x="1270" y="-410" as="targetPoint" />
          </mxGeometry>
        </mxCell>
        <mxCell id="a5W6hC7SfEO5U4nKYkXS-43" value="" style="endArrow=none;html=1;rounded=0;entryX=1;entryY=0;entryDx=0;entryDy=0;exitX=0.5;exitY=1;exitDx=0;exitDy=0;" parent="1" source="a5W6hC7SfEO5U4nKYkXS-25" target="a5W6hC7SfEO5U4nKYkXS-19" edge="1">
          <mxGeometry width="50" height="50" relative="1" as="geometry">
            <mxPoint x="1190" y="-430" as="sourcePoint" />
            <mxPoint x="1280" y="-400" as="targetPoint" />
          </mxGeometry>
        </mxCell>
        <mxCell id="a5W6hC7SfEO5U4nKYkXS-44" value="" style="triangle;whiteSpace=wrap;html=1;rotation=-180;" parent="1" vertex="1">
          <mxGeometry x="960" y="360" width="60" height="80" as="geometry" />
        </mxCell>
        <mxCell id="a5W6hC7SfEO5U4nKYkXS-45" value="IS-A" style="text;html=1;align=center;verticalAlign=middle;whiteSpace=wrap;rounded=0;rotation=0;" parent="1" vertex="1">
          <mxGeometry x="966" y="385" width="60" height="30" as="geometry" />
        </mxCell>
        <mxCell id="a5W6hC7SfEO5U4nKYkXS-46" value="" style="endArrow=none;html=1;rounded=0;entryX=0.5;entryY=1;entryDx=0;entryDy=0;exitX=1;exitY=0.5;exitDx=0;exitDy=0;" parent="1" source="a5W6hC7SfEO5U4nKYkXS-44" target="2-oC6OEvbJuWoWcRU2Rp-5" edge="1">
          <mxGeometry width="50" height="50" relative="1" as="geometry">
            <mxPoint x="960" y="360" as="sourcePoint" />
            <mxPoint x="1300" y="450" as="targetPoint" />
            <Array as="points">
              <mxPoint x="900" y="400" />
            </Array>
          </mxGeometry>
        </mxCell>
        <mxCell id="a5W6hC7SfEO5U4nKYkXS-48" value="" style="endArrow=none;html=1;rounded=0;entryX=0;entryY=0.5;entryDx=0;entryDy=0;exitX=0;exitY=0.25;exitDx=0;exitDy=0;" parent="1" target="a5W6hC7SfEO5U4nKYkXS-50" edge="1">
          <mxGeometry width="50" height="50" relative="1" as="geometry">
            <mxPoint x="1020" y="426" as="sourcePoint" />
            <mxPoint x="1260" y="386" as="targetPoint" />
            <Array as="points">
              <mxPoint x="1140" y="426" />
            </Array>
          </mxGeometry>
        </mxCell>
        <mxCell id="a5W6hC7SfEO5U4nKYkXS-49" value="Reps_Exercise" style="rounded=0;whiteSpace=wrap;html=1;" parent="1" vertex="1">
          <mxGeometry x="1250" y="276" width="120" height="60" as="geometry" />
        </mxCell>
        <mxCell id="a5W6hC7SfEO5U4nKYkXS-50" value="Time_Exercise" style="rounded=0;whiteSpace=wrap;html=1;" parent="1" vertex="1">
          <mxGeometry x="1250" y="456" width="120" height="60" as="geometry" />
        </mxCell>
        <mxCell id="a5W6hC7SfEO5U4nKYkXS-51" value="" style="endArrow=none;html=1;rounded=0;exitX=0.419;exitY=0.991;exitDx=0;exitDy=0;entryX=0.374;entryY=0.121;entryDx=0;entryDy=0;entryPerimeter=0;exitPerimeter=0;" parent="1" edge="1">
          <mxGeometry width="50" height="50" relative="1" as="geometry">
            <mxPoint x="1320" y="-190" as="sourcePoint" />
            <mxPoint x="1320" y="-101" as="targetPoint" />
          </mxGeometry>
        </mxCell>
        <mxCell id="a5W6hC7SfEO5U4nKYkXS-54" value="" style="endArrow=none;html=1;rounded=0;exitX=1;exitY=0.5;exitDx=0;exitDy=0;entryX=0.5;entryY=1;entryDx=0;entryDy=0;" parent="1" source="a5W6hC7SfEO5U4nKYkXS-50" target="a5W6hC7SfEO5U4nKYkXS-53" edge="1">
          <mxGeometry width="50" height="50" relative="1" as="geometry">
            <mxPoint x="1545" y="165" as="sourcePoint" />
            <mxPoint x="1790" y="-120.5" as="targetPoint" />
            <Array as="points">
              <mxPoint x="1545" y="486" />
            </Array>
          </mxGeometry>
        </mxCell>
        <mxCell id="a5W6hC7SfEO5U4nKYkXS-55" value="1" style="text;html=1;align=center;verticalAlign=middle;whiteSpace=wrap;rounded=0;" parent="1" vertex="1">
          <mxGeometry x="1350" y="480" width="60" height="30" as="geometry" />
        </mxCell>
        <mxCell id="a5W6hC7SfEO5U4nKYkXS-56" value="" style="endArrow=none;html=1;rounded=0;exitX=1;exitY=0.75;exitDx=0;exitDy=0;entryX=0.374;entryY=0.121;entryDx=0;entryDy=0;entryPerimeter=0;" parent="1" edge="1">
          <mxGeometry width="50" height="50" relative="1" as="geometry">
            <mxPoint x="1370" y="-393" as="sourcePoint" />
            <mxPoint x="1534.92" y="-220.82000000000016" as="targetPoint" />
            <Array as="points">
              <mxPoint x="1535" y="-393" />
            </Array>
          </mxGeometry>
        </mxCell>
        <mxCell id="a5W6hC7SfEO5U4nKYkXS-57" value="" style="endArrow=none;html=1;rounded=0;exitX=1;exitY=0.25;exitDx=0;exitDy=0;entryX=0.374;entryY=0.121;entryDx=0;entryDy=0;entryPerimeter=0;" parent="1" edge="1">
          <mxGeometry width="50" height="50" relative="1" as="geometry">
            <mxPoint x="1370" y="-410" as="sourcePoint" />
            <mxPoint x="1555" y="-207" as="targetPoint" />
            <Array as="points">
              <mxPoint x="1555" y="-410" />
            </Array>
          </mxGeometry>
        </mxCell>
        <mxCell id="a5W6hC7SfEO5U4nKYkXS-58" value="N" style="text;html=1;align=center;verticalAlign=middle;whiteSpace=wrap;rounded=0;" parent="1" vertex="1">
          <mxGeometry x="1355" y="-383" width="60" height="30" as="geometry" />
        </mxCell>
        <mxCell id="a5W6hC7SfEO5U4nKYkXS-53" value="Has" style="rhombus;whiteSpace=wrap;html=1;" parent="1" vertex="1">
          <mxGeometry x="1505" y="-231.5" width="80" height="80" as="geometry" />
        </mxCell>
        <mxCell id="piTPa_RLiQqpF4g6eclb-3" value="" style="endArrow=none;html=1;rounded=0;entryX=0.15;entryY=0.375;entryDx=0;entryDy=0;exitX=0.25;exitY=1;exitDx=0;exitDy=0;entryPerimeter=0;" parent="1" edge="1">
          <mxGeometry width="50" height="50" relative="1" as="geometry">
            <mxPoint x="879" y="-97.24999999999977" as="sourcePoint" />
            <mxPoint x="879" y="6" as="targetPoint" />
          </mxGeometry>
        </mxCell>
        <mxCell id="piTPa_RLiQqpF4g6eclb-5" value="" style="endArrow=none;html=1;rounded=0;entryX=0.847;entryY=0.349;entryDx=0;entryDy=0;exitX=0;exitY=0.5;exitDx=0;exitDy=0;entryPerimeter=0;" parent="1" source="bBhkpNK5yPJ5Nh3VC-9j-2" edge="1">
          <mxGeometry width="50" height="50" relative="1" as="geometry">
            <mxPoint x="1053.62" y="15.949999999999992" as="sourcePoint" />
            <mxPoint x="938.3800000000002" y="15.370000000000065" as="targetPoint" />
          </mxGeometry>
        </mxCell>
        <mxCell id="piTPa_RLiQqpF4g6eclb-6" value="" style="endArrow=none;html=1;rounded=0;entryX=0.15;entryY=0.375;entryDx=0;entryDy=0;exitX=0.25;exitY=1;exitDx=0;exitDy=0;entryPerimeter=0;" parent="1" edge="1">
          <mxGeometry width="50" height="50" relative="1" as="geometry">
            <mxPoint x="921" y="-97.25" as="sourcePoint" />
            <mxPoint x="921" y="5.75" as="targetPoint" />
          </mxGeometry>
        </mxCell>
        <mxCell id="piTPa_RLiQqpF4g6eclb-2" value="Publish" style="rhombus;whiteSpace=wrap;html=1;" parent="1" vertex="1">
          <mxGeometry x="858" y="-24" width="80" height="80" as="geometry" />
        </mxCell>
        <mxCell id="piTPa_RLiQqpF4g6eclb-7" value="N" style="text;html=1;align=center;verticalAlign=middle;whiteSpace=wrap;rounded=0;" parent="1" vertex="1">
          <mxGeometry x="836" y="-100.25" width="60" height="30" as="geometry" />
        </mxCell>
        <mxCell id="piTPa_RLiQqpF4g6eclb-8" value="1" style="text;html=1;align=center;verticalAlign=middle;whiteSpace=wrap;rounded=0;" parent="1" vertex="1">
          <mxGeometry x="1030" y="16" width="60" height="30" as="geometry" />
        </mxCell>
        <mxCell id="piTPa_RLiQqpF4g6eclb-10" value="N" style="text;html=1;align=center;verticalAlign=middle;whiteSpace=wrap;rounded=0;" parent="1" vertex="1">
          <mxGeometry x="1210" y="-248" width="60" height="30" as="geometry" />
        </mxCell>
        <mxCell id="piTPa_RLiQqpF4g6eclb-11" value="N" style="text;html=1;align=center;verticalAlign=middle;whiteSpace=wrap;rounded=0;" parent="1" vertex="1">
          <mxGeometry x="1211" y="-430" width="60" height="30" as="geometry" />
        </mxCell>
        <mxCell id="piTPa_RLiQqpF4g6eclb-13" value="1" style="text;html=1;align=center;verticalAlign=middle;whiteSpace=wrap;rounded=0;" parent="1" vertex="1">
          <mxGeometry x="912.5" y="-195.5" width="60" height="30" as="geometry" />
        </mxCell>
        <mxCell id="piTPa_RLiQqpF4g6eclb-14" value="1" style="text;html=1;align=center;verticalAlign=middle;whiteSpace=wrap;rounded=0;" parent="1" vertex="1">
          <mxGeometry x="858" y="-195.5" width="60" height="30" as="geometry" />
        </mxCell>
        <mxCell id="piTPa_RLiQqpF4g6eclb-15" value="password" style="ellipse;whiteSpace=wrap;html=1;" parent="1" vertex="1">
          <mxGeometry x="455" y="-270" width="90" height="40" as="geometry" />
        </mxCell>
        <mxCell id="piTPa_RLiQqpF4g6eclb-16" value="Disjoint" style="text;html=1;align=center;verticalAlign=middle;whiteSpace=wrap;rounded=0;" parent="1" vertex="1">
          <mxGeometry x="1015" y="385" width="60" height="30" as="geometry" />
        </mxCell>
        <mxCell id="piTPa_RLiQqpF4g6eclb-18" value="password" style="ellipse;whiteSpace=wrap;html=1;" parent="1" vertex="1">
          <mxGeometry x="470" y="310" width="90" height="40" as="geometry" />
        </mxCell>
        <mxCell id="piTPa_RLiQqpF4g6eclb-19" value="" style="endArrow=none;html=1;rounded=0;entryX=0.5;entryY=0;entryDx=0;entryDy=0;exitX=0.555;exitY=0.997;exitDx=0;exitDy=0;exitPerimeter=0;" parent="1" source="2-oC6OEvbJuWoWcRU2Rp-1" target="piTPa_RLiQqpF4g6eclb-18" edge="1">
          <mxGeometry width="50" height="50" relative="1" as="geometry">
            <mxPoint x="540" y="170" as="sourcePoint" />
            <mxPoint x="515" y="256" as="targetPoint" />
          </mxGeometry>
        </mxCell>
        <mxCell id="2-oC6OEvbJuWoWcRU2Rp-24" value="&lt;u&gt;num_PT&lt;/u&gt;" style="ellipse;whiteSpace=wrap;html=1;" parent="1" vertex="1">
          <mxGeometry x="460" y="245.5" width="90" height="40" as="geometry" />
        </mxCell>
        <mxCell id="piTPa_RLiQqpF4g6eclb-21" value="" style="endArrow=none;html=1;rounded=0;entryX=0.5;entryY=1;entryDx=0;entryDy=0;exitX=0.394;exitY=0;exitDx=0;exitDy=0;exitPerimeter=0;" parent="1" source="2-oC6OEvbJuWoWcRU2Rp-2" target="piTPa_RLiQqpF4g6eclb-15" edge="1">
          <mxGeometry width="50" height="50" relative="1" as="geometry">
            <mxPoint x="543" y="-147" as="sourcePoint" />
            <mxPoint x="573" y="-236" as="targetPoint" />
          </mxGeometry>
        </mxCell>
        <mxCell id="2-oC6OEvbJuWoWcRU2Rp-20" value="description" style="ellipse;whiteSpace=wrap;html=1;" parent="1" vertex="1">
          <mxGeometry x="550" y="278.5" width="90" height="40" as="geometry" />
        </mxCell>
      </root>
    </mxGraphModel>
  </diagram>
</mxfile>
